<svg width="193" height="84" viewBox="0 0 193 84" fill="none" xmlns="http://www.w3.org/2000/svg">
<path d="M61.759 72.656C62.271 74.2773 63.1243 75.5573 64.319 76.496C65.599 77.3493 67.4763 77.8187 69.951 77.904V82.384C67.0497 82.2133 65.2577 82.128 64.575 82.128C60.735 81.872 57.9617 81.744 56.255 81.744C54.463 81.744 51.775 81.872 48.191 82.128C47.5083 82.128 45.887 82.2133 43.327 82.384V77.904C46.3137 77.7333 48.4043 77.4347 49.599 77.008C50.7937 76.5813 51.391 75.6 51.391 74.064C51.391 73.296 51.1777 72.1867 50.751 70.736L46.783 58.192H20.031L16.191 70.864C15.8497 71.9733 15.679 72.9973 15.679 73.936C15.679 75.3867 16.2763 76.368 17.471 76.88C18.751 77.392 20.8417 77.7333 23.743 77.904V82.384L17.983 82C14.5697 81.8293 12.735 81.744 12.479 81.744C12.1377 81.744 10.2603 81.8293 6.847 82L0.447 82.384V77.904C2.751 77.8187 4.58567 77.3067 5.951 76.368C7.40167 75.344 8.383 74.064 8.895 72.528L30.783 1.616H38.847L61.759 72.656ZM45.119 52.944L33.215 15.568H32.703L21.567 52.944H45.119ZM86.568 69.2C89.128 69.2 91.048 69.84 92.328 71.12C93.608 72.4 94.248 74.2347 94.248 76.624C94.248 81.0613 91.688 83.28 86.568 83.28C84.4347 83.28 82.728 82.7253 81.448 81.616C80.168 80.4213 79.528 78.7573 79.528 76.624C79.528 74.32 80.168 72.528 81.448 71.248C82.728 69.8827 84.4347 69.2 86.568 69.2ZM144.27 0.0799942C147.001 0.0799942 150.115 0.335996 153.614 0.848C157.113 1.36 160.27 2 163.086 2.768C162.489 8.22933 162.19 15.312 162.19 24.016H157.582C157.582 18.4693 156.089 14.032 153.102 10.704C150.115 7.376 146.19 5.712 141.326 5.712C133.134 5.712 127.203 8.95466 123.534 15.44C119.865 21.84 118.03 30.9707 118.03 42.832C118.03 53.9253 120.334 62.16 124.942 67.536C129.55 72.912 135.481 75.6 142.734 75.6C145.977 75.6 149.347 75.0453 152.846 73.936C156.43 72.8267 159.886 71.248 163.214 69.2L164.878 72.4C160.526 76.0693 155.961 78.8427 151.182 80.72C146.403 82.5973 141.753 83.536 137.23 83.536C131.598 83.536 126.521 82.128 121.998 79.312C117.561 76.496 114.019 72.3147 111.374 66.768C108.729 61.136 107.406 54.2667 107.406 46.16C107.406 31.6533 110.606 20.3467 117.006 12.24C123.406 4.13333 132.494 0.0799942 144.27 0.0799942ZM184.443 69.2C187.003 69.2 188.923 69.84 190.203 71.12C191.483 72.4 192.123 74.2347 192.123 76.624C192.123 81.0613 189.563 83.28 184.443 83.28C182.31 83.28 180.603 82.7253 179.323 81.616C178.043 80.4213 177.403 78.7573 177.403 76.624C177.403 74.32 178.043 72.528 179.323 71.248C180.603 69.8827 182.31 69.2 184.443 69.2Z" fill="black"/>
</svg>
