<svg width="740" height="66" viewBox="0 0 740 66" fill="none" xmlns="http://www.w3.org/2000/svg">
<path d="M29.8438 8.35938C31.0938 8.35938 32.0938 8.60937 32.8438 9.10938C33.625 9.57812 34.2031 10.3437 34.5781 11.4062L51.125 57.625H53.9844C55.0469 57.625 55.7969 57.875 56.2344 58.375C56.7031 58.8438 56.9375 59.6562 56.9375 60.8125C56.9375 61.9688 56.7031 62.7969 56.2344 63.2969C55.7969 63.7656 55.0469 64 53.9844 64H37.3906C36.3281 64 35.5625 63.7656 35.0938 63.2969C34.6562 62.7969 34.4375 61.9688 34.4375 60.8125C34.4375 59.6562 34.6562 58.8438 35.0938 58.375C35.5625 57.875 36.3281 57.625 37.3906 57.625H43.7188L39.875 46.4688H17.1406L13.25 57.625H18.9219C19.9844 57.625 20.7344 57.875 21.1719 58.375C21.6406 58.8438 21.875 59.6562 21.875 60.8125C21.875 61.9688 21.6406 62.7969 21.1719 63.2969C20.7344 63.7656 19.9844 64 18.9219 64H3.26562C2.20312 64 1.4375 63.7656 0.96875 63.2969C0.53125 62.7969 0.3125 61.9688 0.3125 60.8125C0.3125 59.6562 0.53125 58.8438 0.96875 58.375C1.4375 57.875 2.20312 57.625 3.26562 57.625H5.89062L21.4062 14.7344H12.6406C11.5781 14.7344 10.8125 14.5 10.3438 14.0312C9.90625 13.5312 9.6875 12.7031 9.6875 11.5469C9.6875 10.3906 9.90625 9.57812 10.3438 9.10938C10.8125 8.60937 11.5781 8.35938 12.6406 8.35938H29.8438ZM28.1094 14.7344L19.3438 40.0938H37.7188L29 14.7344H28.1094ZM91.4844 19.6562C94.3281 19.6562 96.7969 20.2812 98.8906 21.5312C100.984 22.75 102.594 24.5156 103.719 26.8281C104.844 29.1406 105.406 31.8438 105.406 34.9375V57.625H109.25C110.312 57.625 111.062 57.875 111.5 58.375C111.969 58.8438 112.203 59.6562 112.203 60.8125C112.203 61.9688 111.969 62.7969 111.5 63.2969C111.062 63.7656 110.312 64 109.25 64H94.0625C93 64 92.2344 63.7656 91.7656 63.2969C91.3281 62.7969 91.1094 61.9688 91.1094 60.8125C91.1094 59.6562 91.3281 58.8438 91.7656 58.375C92.2344 57.875 93 57.625 94.0625 57.625H98.375V35.6406C98.375 32.8594 97.7344 30.6562 96.4531 29.0312C95.1719 27.4062 93.2812 26.5938 90.7812 26.5938C88.125 26.5938 85.6406 27.3594 83.3281 28.8906C81.0469 30.4219 79.2188 32.5312 77.8438 35.2188C76.4688 37.9062 75.7812 40.9062 75.7812 44.2188V57.625H80.0938C81.1562 57.625 81.9062 57.875 82.3438 58.375C82.8125 58.8438 83.0469 59.6562 83.0469 60.8125C83.0469 61.9688 82.8125 62.7969 82.3438 63.2969C81.9062 63.7656 81.1562 64 80.0938 64H64.9062C63.8438 64 63.0781 63.7656 62.6094 63.2969C62.1719 62.7969 61.9531 61.9688 61.9531 60.8125C61.9531 59.6562 62.1719 58.8438 62.6094 58.375C63.0781 57.875 63.8438 57.625 64.9062 57.625H68.75V27.0625H63.9688C62.9062 27.0625 62.1406 26.8281 61.6719 26.3594C61.2344 25.8594 61.0156 25.0312 61.0156 23.875C61.0156 22.7188 61.2344 21.9062 61.6719 21.4375C62.1406 20.9375 62.9062 20.6875 63.9688 20.6875H72.3594C73.4219 20.6875 74.1719 20.9375 74.6094 21.4375C75.0781 21.9062 75.3125 22.7188 75.3125 23.875V29.5C77.375 26.3125 79.7812 23.875 82.5312 22.1875C85.3125 20.5 88.2969 19.6562 91.4844 19.6562ZM136.438 7.32812C137.719 7.32812 138.625 7.5625 139.156 8.03125C139.688 8.5 139.953 9.28125 139.953 10.375V24.4375H159.219C160.281 24.4375 161.031 24.6875 161.469 25.1875C161.938 25.6562 162.172 26.4688 162.172 27.625C162.172 28.7812 161.938 29.6094 161.469 30.1094C161.031 30.5781 160.281 30.8125 159.219 30.8125H139.953V47.875C139.953 51.4375 140.562 54.0469 141.781 55.7031C143.031 57.3594 145.188 58.1875 148.25 58.1875C150.344 58.1875 152.547 57.7656 154.859 56.9219C157.172 56.0781 159.406 54.9531 161.562 53.5469C162 53.2344 162.484 53.0781 163.016 53.0781C164.078 53.0781 164.984 53.7969 165.734 55.2344C166.141 56.0469 166.344 56.75 166.344 57.3438C166.344 58.3438 165.828 59.1562 164.797 59.7812C162.359 61.3125 159.641 62.5781 156.641 63.5781C153.641 64.5469 150.844 65.0312 148.25 65.0312C142.938 65.0312 139.047 63.6562 136.578 60.9062C134.141 58.125 132.922 53.9844 132.922 48.4844V30.8125H123.406C122.344 30.8125 121.578 30.5781 121.109 30.1094C120.672 29.6094 120.453 28.7812 120.453 27.625C120.453 26.4688 120.672 25.6562 121.109 25.1875C121.578 24.6875 122.344 24.4375 123.406 24.4375H132.922V10.375C132.922 9.28125 133.188 8.5 133.719 8.03125C134.25 7.5625 135.156 7.32812 136.438 7.32812ZM201.312 19.6562C205.594 19.6562 209.453 20.625 212.891 22.5625C216.328 24.5 219.016 27.2031 220.953 30.6719C222.922 34.1094 223.906 38 223.906 42.3438C223.906 46.6875 222.922 50.5938 220.953 54.0625C219.016 57.5 216.328 60.1875 212.891 62.125C209.453 64.0625 205.594 65.0312 201.312 65.0312C197.031 65.0312 193.172 64.0625 189.734 62.125C186.297 60.1875 183.594 57.5 181.625 54.0625C179.688 50.5938 178.719 46.6875 178.719 42.3438C178.719 38 179.688 34.1094 181.625 30.6719C183.594 27.2031 186.297 24.5 189.734 22.5625C193.172 20.625 197.031 19.6562 201.312 19.6562ZM201.312 26.5938C198.281 26.5938 195.609 27.2656 193.297 28.6094C191.016 29.9219 189.25 31.7812 188 34.1875C186.75 36.5625 186.125 39.2812 186.125 42.3438C186.125 45.4062 186.75 48.1406 188 50.5469C189.25 52.9219 191.016 54.7812 193.297 56.125C195.609 57.4375 198.281 58.0938 201.312 58.0938C204.344 58.0938 207 57.4375 209.281 56.125C211.594 54.7812 213.375 52.9219 214.625 50.5469C215.875 48.1406 216.5 45.4062 216.5 42.3438C216.5 39.2812 215.875 36.5625 214.625 34.1875C213.375 31.7812 211.594 29.9219 209.281 28.6094C207 27.2656 204.344 26.5938 201.312 26.5938ZM264.172 19.6562C267.016 19.6562 269.484 20.2812 271.578 21.5312C273.672 22.75 275.281 24.5156 276.406 26.8281C277.531 29.1406 278.094 31.8438 278.094 34.9375V57.625H281.938C283 57.625 283.75 57.875 284.188 58.375C284.656 58.8438 284.891 59.6562 284.891 60.8125C284.891 61.9688 284.656 62.7969 284.188 63.2969C283.75 63.7656 283 64 281.938 64H266.75C265.688 64 264.922 63.7656 264.453 63.2969C264.016 62.7969 263.797 61.9688 263.797 60.8125C263.797 59.6562 264.016 58.8438 264.453 58.375C264.922 57.875 265.688 57.625 266.75 57.625H271.062V35.6406C271.062 32.8594 270.422 30.6562 269.141 29.0312C267.859 27.4062 265.969 26.5938 263.469 26.5938C260.812 26.5938 258.328 27.3594 256.016 28.8906C253.734 30.4219 251.906 32.5312 250.531 35.2188C249.156 37.9062 248.469 40.9062 248.469 44.2188V57.625H252.781C253.844 57.625 254.594 57.875 255.031 58.375C255.5 58.8438 255.734 59.6562 255.734 60.8125C255.734 61.9688 255.5 62.7969 255.031 63.2969C254.594 63.7656 253.844 64 252.781 64H237.594C236.531 64 235.766 63.7656 235.297 63.2969C234.859 62.7969 234.641 61.9688 234.641 60.8125C234.641 59.6562 234.859 58.8438 235.297 58.375C235.766 57.875 236.531 57.625 237.594 57.625H241.438V27.0625H236.656C235.594 27.0625 234.828 26.8281 234.359 26.3594C233.922 25.8594 233.703 25.0312 233.703 23.875C233.703 22.7188 233.922 21.9062 234.359 21.4375C234.828 20.9375 235.594 20.6875 236.656 20.6875H245.047C246.109 20.6875 246.859 20.9375 247.297 21.4375C247.766 21.9062 248 22.7188 248 23.875V29.5C250.062 26.3125 252.469 23.875 255.219 22.1875C258 20.5 260.984 19.6562 264.172 19.6562ZM318.125 20.6875C319.188 20.6875 319.938 20.9375 320.375 21.4375C320.844 21.9062 321.078 22.7188 321.078 23.875V57.625H336.125C337.188 57.625 337.938 57.875 338.375 58.375C338.844 58.8438 339.078 59.6562 339.078 60.8125C339.078 61.9688 338.844 62.7969 338.375 63.2969C337.938 63.7656 337.188 64 336.125 64H299.375C298.312 64 297.547 63.7656 297.078 63.2969C296.641 62.7969 296.422 61.9688 296.422 60.8125C296.422 59.6562 296.641 58.8438 297.078 58.375C297.547 57.875 298.312 57.625 299.375 57.625H314.047V27.0625H302.188C301.125 27.0625 300.359 26.8281 299.891 26.3594C299.453 25.8594 299.234 25.0312 299.234 23.875C299.234 22.7188 299.453 21.9062 299.891 21.4375C300.359 20.9375 301.125 20.6875 302.188 20.6875H318.125ZM316.625 0.109375C318.344 0.109375 319.516 0.34375 320.141 0.8125C320.766 1.25 321.078 2.03125 321.078 3.15625V9.25C321.078 10.375 320.766 11.1719 320.141 11.6406C319.516 12.0781 318.344 12.2969 316.625 12.2969C314.906 12.2969 313.734 12.0781 313.109 11.6406C312.484 11.1719 312.172 10.375 312.172 9.25V3.15625C312.172 2.03125 312.484 1.25 313.109 0.8125C313.734 0.34375 314.906 0.109375 316.625 0.109375ZM374 19.6562C378.281 19.6562 382.141 20.625 385.578 22.5625C389.016 24.5 391.703 27.2031 393.641 30.6719C395.609 34.1094 396.594 38 396.594 42.3438C396.594 46.6875 395.609 50.5938 393.641 54.0625C391.703 57.5 389.016 60.1875 385.578 62.125C382.141 64.0625 378.281 65.0312 374 65.0312C369.719 65.0312 365.859 64.0625 362.422 62.125C358.984 60.1875 356.281 57.5 354.312 54.0625C352.375 50.5938 351.406 46.6875 351.406 42.3438C351.406 38 352.375 34.1094 354.312 30.6719C356.281 27.2031 358.984 24.5 362.422 22.5625C365.859 20.625 369.719 19.6562 374 19.6562ZM374 26.5938C370.969 26.5938 368.297 27.2656 365.984 28.6094C363.703 29.9219 361.938 31.7812 360.688 34.1875C359.438 36.5625 358.812 39.2812 358.812 42.3438C358.812 45.4062 359.438 48.1406 360.688 50.5469C361.938 52.9219 363.703 54.7812 365.984 56.125C368.297 57.4375 370.969 58.0938 374 58.0938C377.031 58.0938 379.688 57.4375 381.969 56.125C384.281 54.7812 386.062 52.9219 387.312 50.5469C388.562 48.1406 389.188 45.4062 389.188 42.3438C389.188 39.2812 388.562 36.5625 387.312 34.1875C386.062 31.7812 384.281 29.9219 381.969 28.6094C379.688 27.2656 377.031 26.5938 374 26.5938ZM431.562 49.9375C433.812 49.9375 435.422 50.1719 436.391 50.6406C437.391 51.0781 437.891 51.8281 437.891 52.8906V61.5156C437.891 62.5781 437.391 63.3438 436.391 63.8125C435.422 64.25 433.812 64.4688 431.562 64.4688C429.312 64.4688 427.688 64.25 426.688 63.8125C425.719 63.3438 425.234 62.5781 425.234 61.5156V52.8906C425.234 51.8281 425.719 51.0781 426.688 50.6406C427.688 50.1719 429.312 49.9375 431.562 49.9375ZM507.172 7.32812C508.453 7.32812 509.359 7.5625 509.891 8.03125C510.422 8.5 510.688 9.28125 510.688 10.375V25.8438C510.688 26.9375 510.422 27.7188 509.891 28.1875C509.359 28.6562 508.453 28.8906 507.172 28.8906C505.891 28.8906 504.984 28.6562 504.453 28.1875C503.922 27.7188 503.656 26.9375 503.656 25.8438C503.656 23.7188 503.172 21.7812 502.203 20.0312C501.266 18.2812 499.812 16.8906 497.844 15.8594C495.875 14.7969 493.438 14.2656 490.531 14.2656C487.156 14.2656 484.156 15.1562 481.531 16.9375C478.938 18.7188 476.906 21.2656 475.438 24.5781C474 27.8906 473.281 31.7656 473.281 36.2031C473.281 40.6406 473.969 44.5156 475.344 47.8281C476.719 51.1094 478.672 53.6406 481.203 55.4219C483.734 57.2031 486.688 58.0938 490.062 58.0938C493.156 58.0938 496.109 57.6406 498.922 56.7344C501.734 55.8281 504.266 54.5156 506.516 52.7969C507.047 52.3594 507.625 52.1406 508.25 52.1406C509.188 52.1406 510.016 52.75 510.734 53.9688C511.297 54.9062 511.578 55.7344 511.578 56.4531C511.578 57.3906 511.094 58.2031 510.125 58.8906C507.219 60.9219 504.047 62.4531 500.609 63.4844C497.203 64.5156 493.688 65.0312 490.062 65.0312C485.188 65.0312 480.922 63.8438 477.266 61.4688C473.641 59.0625 470.828 55.6875 468.828 51.3438C466.859 47 465.875 41.9531 465.875 36.2031C465.875 30.4844 466.891 25.4531 468.922 21.1094C470.953 16.7344 473.797 13.3437 477.453 10.9375C481.141 8.53125 485.344 7.32812 490.062 7.32812C493 7.32812 495.609 7.82813 497.891 8.82812C500.172 9.82812 502.094 11.25 503.656 13.0938V10.375C503.656 9.28125 503.922 8.5 504.453 8.03125C504.984 7.5625 505.891 7.32812 507.172 7.32812ZM546.688 19.6562C550.969 19.6562 554.828 20.625 558.266 22.5625C561.703 24.5 564.391 27.2031 566.328 30.6719C568.297 34.1094 569.281 38 569.281 42.3438C569.281 46.6875 568.297 50.5938 566.328 54.0625C564.391 57.5 561.703 60.1875 558.266 62.125C554.828 64.0625 550.969 65.0312 546.688 65.0312C542.406 65.0312 538.547 64.0625 535.109 62.125C531.672 60.1875 528.969 57.5 527 54.0625C525.062 50.5938 524.094 46.6875 524.094 42.3438C524.094 38 525.062 34.1094 527 30.6719C528.969 27.2031 531.672 24.5 535.109 22.5625C538.547 20.625 542.406 19.6562 546.688 19.6562ZM546.688 26.5938C543.656 26.5938 540.984 27.2656 538.672 28.6094C536.391 29.9219 534.625 31.7812 533.375 34.1875C532.125 36.5625 531.5 39.2812 531.5 42.3438C531.5 45.4062 532.125 48.1406 533.375 50.5469C534.625 52.9219 536.391 54.7812 538.672 56.125C540.984 57.4375 543.656 58.0938 546.688 58.0938C549.719 58.0938 552.375 57.4375 554.656 56.125C556.969 54.7812 558.75 52.9219 560 50.5469C561.25 48.1406 561.875 45.4062 561.875 42.3438C561.875 39.2812 561.25 36.5625 560 34.1875C558.75 31.7812 556.969 29.9219 554.656 28.6094C552.375 27.2656 549.719 26.5938 546.688 26.5938ZM620.609 2.5C621.672 2.5 622.422 2.75 622.859 3.25C623.328 3.71875 623.562 4.53125 623.562 5.6875V57.625H627.406C628.469 57.625 629.219 57.875 629.656 58.375C630.125 58.8438 630.359 59.6562 630.359 60.8125C630.359 61.9688 630.125 62.7969 629.656 63.2969C629.219 63.7656 628.469 64 627.406 64H619.953C618.891 64 618.125 63.7656 617.656 63.2969C617.219 62.7969 617 61.9688 617 60.8125V57.0625C615.031 59.625 612.75 61.5938 610.156 62.9688C607.562 64.3438 604.734 65.0312 601.672 65.0312C597.797 65.0312 594.328 64.125 591.266 62.3125C588.203 60.4688 585.797 57.8438 584.047 54.4375C582.297 51 581.422 46.9688 581.422 42.3438C581.422 37.7188 582.297 33.7031 584.047 30.2969C585.797 26.8594 588.203 24.2344 591.266 22.4219C594.328 20.5781 597.797 19.6562 601.672 19.6562C607.547 19.6562 612.5 22.2344 616.531 27.3906V8.875H608.938C607.875 8.875 607.109 8.64062 606.641 8.17188C606.203 7.67187 605.984 6.84375 605.984 5.6875C605.984 4.53125 606.203 3.71875 606.641 3.25C607.109 2.75 607.875 2.5 608.938 2.5H620.609ZM602.141 26.5938C599.359 26.5938 596.969 27.2656 594.969 28.6094C592.969 29.9219 591.438 31.7656 590.375 34.1406C589.344 36.5156 588.828 39.25 588.828 42.3438C588.828 45.4375 589.344 48.1719 590.375 50.5469C591.438 52.9219 592.969 54.7812 594.969 56.125C596.969 57.4375 599.359 58.0938 602.141 58.0938C604.922 58.0938 607.391 57.4688 609.547 56.2188C611.734 54.9688 613.438 53.1562 614.656 50.7812C615.906 48.4062 616.531 45.5938 616.531 42.3438C616.531 39.0938 615.906 36.2812 614.656 33.9062C613.438 31.5312 611.734 29.7188 609.547 28.4688C607.391 27.2188 604.922 26.5938 602.141 26.5938ZM662.234 19.6562C666.766 19.6562 670.625 20.5781 673.812 22.4219C677.031 24.2344 679.5 26.7656 681.219 30.0156C682.938 33.2344 683.922 36.9531 684.172 41.1719C684.172 42.2344 683.938 42.9844 683.469 43.4219C683.031 43.8594 682.281 44.0781 681.219 44.0781H647.281C647.5 48.7344 648.875 52.2656 651.406 54.6719C653.969 57.0469 657.578 58.2344 662.234 58.2344C665.109 58.2344 667.953 57.875 670.766 57.1562C673.578 56.4062 676.047 55.4219 678.172 54.2031C678.703 53.9219 679.188 53.7812 679.625 53.7812C680.719 53.7812 681.609 54.6094 682.297 56.2656C682.578 56.9219 682.719 57.5156 682.719 58.0469C682.719 59.2969 682.031 60.2656 680.656 60.9531C678.25 62.1719 675.406 63.1562 672.125 63.9062C668.844 64.6562 665.547 65.0312 662.234 65.0312C657.516 65.0312 653.484 64.125 650.141 62.3125C646.797 60.5 644.25 57.8906 642.5 54.4844C640.75 51.0781 639.875 47.0312 639.875 42.3438C639.875 37.875 640.828 33.9219 642.734 30.4844C644.641 27.0469 647.281 24.3906 650.656 22.5156C654.031 20.6094 657.891 19.6562 662.234 19.6562ZM662.234 26.4531C658.391 26.4531 655.203 27.4375 652.672 29.4062C650.172 31.3438 648.531 34.0469 647.75 37.5156H676.391C675.734 33.9219 674.219 31.1875 671.844 29.3125C669.5 27.4062 666.297 26.4531 662.234 26.4531ZM734.141 19.6562C735.422 19.6562 736.328 19.8906 736.859 20.3594C737.391 20.8281 737.656 21.6094 737.656 22.7031V31.6094C737.656 32.7031 737.391 33.4844 736.859 33.9531C736.328 34.4219 735.422 34.6562 734.141 34.6562C733.078 34.6562 732.328 34.25 731.891 33.4375C730.547 30.875 728.594 29.0781 726.031 28.0469C723.469 26.9844 720.219 26.4531 716.281 26.4531C713.25 26.4531 710.875 27 709.156 28.0938C707.469 29.1562 706.625 30.6562 706.625 32.5938C706.625 33.5938 706.938 34.4062 707.562 35.0312C708.219 35.6562 709.172 36.1719 710.422 36.5781C711.453 36.9219 712.641 37.1875 713.984 37.375C715.359 37.5625 717.125 37.7656 719.281 37.9844C722.312 38.3281 724.75 38.6562 726.594 38.9688C728.469 39.25 730.234 39.6875 731.891 40.2812C734.391 41.1875 736.328 42.5 737.703 44.2188C739.109 45.9375 739.812 48.2031 739.812 51.0156C739.812 53.8281 739.094 56.2969 737.656 58.4219C736.25 60.5156 734.172 62.1406 731.422 63.2969C728.703 64.4531 725.438 65.0312 721.625 65.0312C718.25 65.0312 715.281 64.5625 712.719 63.625C710.156 62.6875 707.922 61.2656 706.016 59.3594V61.9844C706.016 63.0781 705.75 63.8594 705.219 64.3281C704.688 64.7969 703.781 65.0312 702.5 65.0312C701.219 65.0312 700.312 64.7969 699.781 64.3281C699.25 63.8594 698.984 63.0781 698.984 61.9844V50.7344C698.984 49.6406 699.25 48.8594 699.781 48.3906C700.312 47.9219 701.219 47.6875 702.5 47.6875C703.156 47.6875 703.672 47.8438 704.047 48.1562C704.422 48.4375 704.75 48.9219 705.031 49.6094C706.156 52.6094 708.031 54.7969 710.656 56.1719C713.281 57.5469 716.781 58.2344 721.156 58.2344C724.781 58.2344 727.562 57.5781 729.5 56.2656C731.438 54.9531 732.406 53.2031 732.406 51.0156C732.406 49.9531 732.062 49.0781 731.375 48.3906C730.688 47.7031 729.703 47.1406 728.422 46.7031C727.328 46.3594 726.062 46.0781 724.625 45.8594C723.219 45.6094 721.422 45.375 719.234 45.1562C716.297 44.8438 713.844 44.5156 711.875 44.1719C709.906 43.8281 708.094 43.3281 706.438 42.6719C704.156 41.7656 702.375 40.5156 701.094 38.9219C699.844 37.2969 699.219 35.1875 699.219 32.5938C699.219 29.875 699.922 27.5469 701.328 25.6094C702.766 23.6406 704.734 22.1562 707.234 21.1562C709.766 20.1562 712.625 19.6562 715.812 19.6562C718.844 19.6562 721.609 20.1094 724.109 21.0156C726.641 21.9219 728.812 23.1875 730.625 24.8125V22.7031C730.625 21.6094 730.891 20.8281 731.422 20.3594C731.953 19.8906 732.859 19.6562 734.141 19.6562Z" fill="black"/>
</svg>
